<svg xmlns="http://www.w3.org/2000/svg" xmlns:xlink="http://www.w3.org/1999/xlink" width="296" height="106pt" viewBox="0 0 222 106"><g id="graph0" class="graph" transform="scale(1 1) rotate(0) translate(4 102)"><title>ioapic_t</title><g id="node1" class="node"><title>Node1</title><g id="a_node1"><a xlink:title="Definition of an IOAPIC."><polygon fill="#bfbfbf" stroke="#000" points="74.5 -.5 74.5 -19.5 129.5 -19.5 129.5 -.5 74.5 -.5"/><text x="102" y="-7.5" font-family="Helvetica,sans-Serif" font-size="10" text-anchor="middle">ioapic_t</text></a></g></g><g id="node2" class="node"><title>Node2</title><g id="a_node2"><a><polygon fill="none" stroke="#bfbfbf" points="0 -78.5 0 -97.5 56 -97.5 56 -78.5 0 -78.5"/><text x="28" y="-85.5" font-family="Helvetica,sans-Serif" font-size="10" text-anchor="middle">uint64_t</text></a></g></g><g id="edge1" class="edge"><title>Node2-&gt;Node1</title><path fill="none" stroke="#9a32cd" stroke-dasharray="5 2" d="M39.96,-69.97C47.24,-60.14 57.04,-47.81 67,-38 73.89,-31.21 82.48,-24.57 89.42,-19.57"/><polygon fill="#9a32cd" stroke="#9a32cd" points="37.06 -68 34.04 -78.15 42.74 -72.1 37.06 -68"/><text x="82.5" y="-46.5" font-family="Helvetica,sans-Serif" font-size="10" text-anchor="middle">paddr</text></g><g id="node3" class="node"><title>Node3</title><g id="a_node3"><a><polygon fill="none" stroke="#bfbfbf" points="74 -78.5 74 -97.5 130 -97.5 130 -78.5 74 -78.5"/><text x="102" y="-85.5" font-family="Helvetica,sans-Serif" font-size="10" text-anchor="middle">uint32_t</text></a></g></g><g id="edge2" class="edge"><title>Node3-&gt;Node1</title><path fill="none" stroke="#9a32cd" stroke-dasharray="5 2" d="M102,-68.22C102,-52.7 102,-31.36 102,-19.62"/><polygon fill="#9a32cd" stroke="#9a32cd" points="98.5 -68.28 102 -78.28 105.5 -68.28 98.5 -68.28"/><text x="125" y="-46.5" font-family="Helvetica,sans-Serif" font-size="10" text-anchor="middle">gsi_base</text></g><g id="node4" class="node"><title>Node4</title><g id="a_node4"><a><polygon fill="none" stroke="#bfbfbf" points="148 -78.5 148 -97.5 198 -97.5 198 -78.5 148 -78.5"/><text x="173" y="-85.5" font-family="Helvetica,sans-Serif" font-size="10" text-anchor="middle">uint8_t</text></a></g></g><g id="edge3" class="edge"><title>Node4-&gt;Node1</title><path fill="none" stroke="#9a32cd" stroke-dasharray="5 2" d="M167.93,-68.68C164.44,-58.7 158.98,-46.66 151,-38 143.76,-30.14 133.69,-24.05 124.57,-19.66"/><polygon fill="#9a32cd" stroke="#9a32cd" points="164.65 -69.93 170.96 -78.44 171.34 -67.86 164.65 -69.93"/><text x="189" y="-52" font-family="Helvetica,sans-Serif" font-size="10" text-anchor="middle">gsi_count</text><text x="189" y="-41" font-family="Helvetica,sans-Serif" font-size="10" text-anchor="middle">id</text></g></g></svg>