<svg xmlns="http://www.w3.org/2000/svg" xmlns:xlink="http://www.w3.org/1999/xlink" width="185pt" height="95pt" viewBox="0 0 185 95"><g id="graph0" class="graph" transform="scale(1 1) rotate(0) translate(4 91)"><title>ub_var_double</title><g id="node1" class="node"><title>Node1</title><g id="a_node1"><a xlink:title="A real (double) variable."><polygon fill="#bfbfbf" stroke="#000" points="43 -.5 43 -19.5 131 -19.5 131 -.5 43 -.5"/><text x="87" y="-7.5" font-family="Helvetica,sans-Serif" font-size="10" text-anchor="middle">ub_var_double</text></a></g></g><g id="edge3" class="edge"><title>Node1-&gt;Node1</title><path fill="none" stroke="#9a32cd" stroke-dasharray="5 2" d="M141.26,-14.71C146.02,-13.72 149,-12.15 149,-10 149,-6.56 141.37,-4.6 131.02,-4.12"/><polygon fill="#9a32cd" stroke="#9a32cd" points="140.56 -11.27 131.02 -15.88 141.36 -18.23 140.56 -11.27"/><text x="161.5" y="-7.5" font-family="Helvetica,sans-Serif" font-size="10" text-anchor="middle">next</text></g><g id="node2" class="node"><title>Node2</title><g id="a_node2"><a><polygon fill="none" stroke="#bfbfbf" points="0 -67.5 0 -86.5 50 -86.5 50 -67.5 0 -67.5"/><text x="25" y="-74.5" font-family="Helvetica,sans-Serif" font-size="10" text-anchor="middle">double</text></a></g></g><g id="edge1" class="edge"><title>Node2-&gt;Node1</title><path fill="none" stroke="#9a32cd" stroke-dasharray="5 2" d="M35.66,-58.76C40.27,-51.94 45.98,-44.26 52,-38 58.6,-31.14 67.01,-24.59 73.94,-19.66"/><polygon fill="#9a32cd" stroke="#9a32cd" points="32.63 -57 30.14 -67.3 38.51 -60.8 32.63 -57"/><text x="67.5" y="-41" font-family="Helvetica,sans-Serif" font-size="10" text-anchor="middle">value</text></g><g id="node3" class="node"><title>Node3</title><g id="a_node3"><a><polygon fill="none" stroke="#bfbfbf" points="68 -67.5 68 -86.5 106 -86.5 106 -67.5 68 -67.5"/><text x="87" y="-74.5" font-family="Helvetica,sans-Serif" font-size="10" text-anchor="middle">char</text></a></g></g><g id="edge2" class="edge"><title>Node3-&gt;Node1</title><path fill="none" stroke="#9a32cd" stroke-dasharray="5 2" d="M87,-57.04C87,-44.67 87,-29.12 87,-19.63"/><polygon fill="#9a32cd" stroke="#9a32cd" points="83.5 -57.23 87 -67.23 90.5 -57.23 83.5 -57.23"/><text x="110.5" y="-41" font-family="Helvetica,sans-Serif" font-size="10" text-anchor="middle">varname</text></g><g id="node4" class="node"><title>Node4</title><g id="a_node4"><a><polygon fill="none" stroke="#bfbfbf" points="138 -67.5 138 -86.5 176 -86.5 176 -67.5 138 -67.5"/><text x="157" y="-74.5" font-family="Helvetica,sans-Serif" font-size="10" text-anchor="middle">bool</text></a></g></g><g id="edge4" class="edge"><title>Node4-&gt;Node1</title><path fill="none" stroke="#9a32cd" stroke-dasharray="5 2" d="M149.13,-58.03C145.52,-51.19 140.76,-43.69 135,-38 127.25,-30.34 116.88,-24.15 107.76,-19.64"/><polygon fill="#9a32cd" stroke="#9a32cd" points="146.08 -59.77 153.56 -67.28 152.4 -56.75 146.08 -59.77"/><text x="160" y="-41" font-family="Helvetica,sans-Serif" font-size="10" text-anchor="middle">global</text></g></g></svg>