<svg xmlns="http://www.w3.org/2000/svg" xmlns:xlink="http://www.w3.org/1999/xlink" width="137pt" height="128pt" viewBox="0 0 137 128"><g id="graph0" class="graph" transform="scale(1 1) rotate(0) translate(4 124)"><title>udp_packet</title><g id="node1" class="node"><title>Node1</title><g id="a_node1"><a xlink:title="Raw structure for UDP."><polygon fill="#bfbfbf" stroke="#000" points="30 -.5 30 -19.5 102 -19.5 102 -.5 30 -.5"/><text x="66" y="-7.5" font-family="Helvetica,sans-Serif" font-size="10" text-anchor="middle">udp_packet</text></a></g></g><g id="node2" class="node"><title>Node2</title><g id="a_node2"><a><polygon fill="none" stroke="#bfbfbf" points="0 -100.5 0 -119.5 56 -119.5 56 -100.5 0 -100.5"/><text x="28" y="-107.5" font-family="Helvetica,sans-Serif" font-size="10" text-anchor="middle">uint16_t</text></a></g></g><g id="edge1" class="edge"><title>Node2-&gt;Node1</title><path fill="none" stroke="#9a32cd" stroke-dasharray="5 2" d="M23.85,-89.99C21.58,-75.01 20.7,-54.06 29,-38 33.09,-30.09 40.68,-23.93 47.93,-19.51"/><polygon fill="#9a32cd" stroke="#9a32cd" points="20.45 -90.9 25.72 -100.09 27.34 -89.62 20.45 -90.9"/><text x="55.5" y="-74" font-family="Helvetica,sans-Serif" font-size="10" text-anchor="middle">checksum</text><text x="55.5" y="-63" font-family="Helvetica,sans-Serif" font-size="10" text-anchor="middle">dst_port</text><text x="55.5" y="-52" font-family="Helvetica,sans-Serif" font-size="10" text-anchor="middle">length</text><text x="55.5" y="-41" font-family="Helvetica,sans-Serif" font-size="10" text-anchor="middle">src_port</text></g><g id="node3" class="node"><title>Node3</title><g id="a_node3"><a><polygon fill="none" stroke="#bfbfbf" points="79 -100.5 79 -119.5 129 -119.5 129 -100.5 79 -100.5"/><text x="104" y="-107.5" font-family="Helvetica,sans-Serif" font-size="10" text-anchor="middle">uint8_t</text></a></g></g><g id="edge2" class="edge"><title>Node3-&gt;Node1</title><path fill="none" stroke="#9a32cd" stroke-dasharray="5 2" d="M99.59,-90.66C95.78,-76.07 89.68,-55.29 82,-38 79.17,-31.63 75.17,-24.88 71.88,-19.72"/><polygon fill="#9a32cd" stroke="#9a32cd" points="96.22 -91.61 102.04 -100.46 103.01 -89.91 96.22 -91.61"/><text x="109.5" y="-57.5" font-family="Helvetica,sans-Serif" font-size="10" text-anchor="middle">data</text></g></g></svg>