<svg xmlns="http://www.w3.org/2000/svg" xmlns:xlink="http://www.w3.org/1999/xlink" width="146pt" height="205pt" viewBox="0 0 146 205"><g id="graph0" class="graph" transform="scale(1 1) rotate(0) translate(4 201)"><title>ahci_fis_pio_setup_t</title><g id="node1" class="node"><title>Node1</title><g id="a_node1"><a><polygon fill="#bfbfbf" stroke="#000" points="5.5 -.5 5.5 -19.5 120.5 -19.5 120.5 -.5 5.5 -.5"/><text x="63" y="-7.5" font-family="Helvetica,sans-Serif" font-size="10" text-anchor="middle">ahci_fis_pio_setup_t</text></a></g></g><g id="node2" class="node"><title>Node2</title><g id="a_node2"><a><polygon fill="none" stroke="#bfbfbf" points="0 -177.5 0 -196.5 56 -196.5 56 -177.5 0 -177.5"/><text x="28" y="-184.5" font-family="Helvetica,sans-Serif" font-size="10" text-anchor="middle">uint16_t</text></a></g></g><g id="edge1" class="edge"><title>Node2-&gt;Node1</title><path fill="none" stroke="#9a32cd" stroke-dasharray="5 2" d="M31.81,-166.95C39.34,-129.3 55.87,-46.65 61.26,-19.69"/><polygon fill="#9a32cd" stroke="#9a32cd" points="28.31 -166.59 29.78 -177.08 35.18 -167.96 28.31 -166.59"/><text x="64.5" y="-96" font-family="Helvetica,sans-Serif" font-size="10" text-anchor="middle">tc</text></g><g id="node3" class="node"><title>Node3</title><g id="a_node3"><a><polygon fill="none" stroke="#bfbfbf" points="74 -177.5 74 -196.5 124 -196.5 124 -177.5 74 -177.5"/><text x="99" y="-184.5" font-family="Helvetica,sans-Serif" font-size="10" text-anchor="middle">uint8_t</text></a></g></g><g id="edge2" class="edge"><title>Node3-&gt;Node1</title><path fill="none" stroke="#9a32cd" stroke-dasharray="5 2" d="M97.53,-167.4C94.94,-139.01 88.52,-83.39 75,-38 73.13,-31.71 70.13,-24.96 67.59,-19.78"/><polygon fill="#9a32cd" stroke="#9a32cd" points="94.05 -167.82 98.39 -177.48 101.03 -167.22 94.05 -167.82"/><text x="117" y="-151" font-family="Helvetica,sans-Serif" font-size="10" text-anchor="middle">counth</text><text x="117" y="-140" font-family="Helvetica,sans-Serif" font-size="10" text-anchor="middle">countl</text><text x="117" y="-129" font-family="Helvetica,sans-Serif" font-size="10" text-anchor="middle">d</text><text x="117" y="-118" font-family="Helvetica,sans-Serif" font-size="10" text-anchor="middle">device</text><text x="117" y="-107" font-family="Helvetica,sans-Serif" font-size="10" text-anchor="middle">e_status</text><text x="117" y="-96" font-family="Helvetica,sans-Serif" font-size="10" text-anchor="middle">error</text><text x="117" y="-85" font-family="Helvetica,sans-Serif" font-size="10" text-anchor="middle">fis_type</text><text x="117" y="-74" font-family="Helvetica,sans-Serif" font-size="10" text-anchor="middle">i</text><text x="117" y="-63" font-family="Helvetica,sans-Serif" font-size="10" text-anchor="middle">lba0</text><text x="117" y="-52" font-family="Helvetica,sans-Serif" font-size="10" text-anchor="middle">lba1</text><text x="117" y="-41" font-family="Helvetica,sans-Serif" font-size="10" text-anchor="middle">...</text></g></g></svg>