<svg xmlns="http://www.w3.org/2000/svg" xmlns:xlink="http://www.w3.org/1999/xlink" width="332pt" height="106pt" viewBox="0 0 332 106"><g id="graph0" class="graph" transform="scale(1 1) rotate(0) translate(4 102)"><title>icmp_redirect_packet</title><g id="node1" class="node"><title>Node1</title><g id="a_node1"><a><polygon fill="#bfbfbf" stroke="#000" points="129.5 -.5 129.5 -19.5 250.5 -19.5 250.5 -.5 129.5 -.5"/><text x="190" y="-7.5" font-family="Helvetica,sans-Serif" font-size="10" text-anchor="middle">icmp_redirect_packet</text></a></g></g><g id="node2" class="node"><title>Node2</title><g id="a_node2"><a><polygon fill="none" stroke="#bfbfbf" points="0 -78.5 0 -97.5 72 -97.5 72 -78.5 0 -78.5"/><text x="36" y="-85.5" font-family="Helvetica,sans-Serif" font-size="10" text-anchor="middle">ip_packet_t</text></a></g></g><g id="edge1" class="edge"><title>Node2-&gt;Node1</title><path fill="none" stroke="#9a32cd" stroke-dasharray="5 2" d="M37.16,-68.16C38.8,-57.83 42.55,-45.6 51,-38 62.69,-27.48 97.44,-20.73 129.27,-16.61"/><polygon fill="#9a32cd" stroke="#9a32cd" points="33.66 -68.01 36.09 -78.33 40.62 -68.75 33.66 -68.01"/><text x="97.5" y="-46.5" font-family="Helvetica,sans-Serif" font-size="10" text-anchor="middle">original_datagram</text></g><g id="node3" class="node"><title>Node3</title><g id="a_node3"><a><polygon fill="none" stroke="#bfbfbf" points="124 -78.5 124 -97.5 180 -97.5 180 -78.5 124 -78.5"/><text x="152" y="-85.5" font-family="Helvetica,sans-Serif" font-size="10" text-anchor="middle">uint16_t</text></a></g></g><g id="edge2" class="edge"><title>Node3-&gt;Node1</title><path fill="none" stroke="#9a32cd" stroke-dasharray="5 2" d="M148.6,-68.39C147.75,-58.8 148.2,-47.22 153,-38 157.12,-30.1 164.71,-23.95 171.96,-19.52"/><polygon fill="#9a32cd" stroke="#9a32cd" points="145.15 -69.05 150 -78.47 152.09 -68.08 145.15 -69.05"/><text x="179.5" y="-46.5" font-family="Helvetica,sans-Serif" font-size="10" text-anchor="middle">checksum</text></g><g id="node4" class="node"><title>Node4</title><g id="a_node4"><a><polygon fill="none" stroke="#bfbfbf" points="200 -78.5 200 -97.5 256 -97.5 256 -78.5 200 -78.5"/><text x="228" y="-85.5" font-family="Helvetica,sans-Serif" font-size="10" text-anchor="middle">uint32_t</text></a></g></g><g id="edge3" class="edge"><title>Node4-&gt;Node1</title><path fill="none" stroke="#9a32cd" stroke-dasharray="5 2" d="M220.39,-68.76C216.36,-59.44 211.18,-47.98 206,-38 202.79,-31.81 198.79,-25.06 195.59,-19.86"/><polygon fill="#9a32cd" stroke="#9a32cd" points="217.27 -70.35 224.4 -78.18 223.71 -67.61 217.27 -70.35"/><text x="239" y="-46.5" font-family="Helvetica,sans-Serif" font-size="10" text-anchor="middle">gateway</text></g><g id="node5" class="node"><title>Node5</title><g id="a_node5"><a><polygon fill="none" stroke="#bfbfbf" points="274 -78.5 274 -97.5 324 -97.5 324 -78.5 274 -78.5"/><text x="299" y="-85.5" font-family="Helvetica,sans-Serif" font-size="10" text-anchor="middle">uint8_t</text></a></g></g><g id="edge4" class="edge"><title>Node5-&gt;Node1</title><path fill="none" stroke="#9a32cd" stroke-dasharray="5 2" d="M290.59,-69.1C284.92,-58.75 276.56,-46.19 266,-38 255.16,-29.59 241.48,-23.66 228.72,-19.55"/><polygon fill="#9a32cd" stroke="#9a32cd" points="287.53 -70.8 295.17 -78.13 293.77 -67.63 287.53 -70.8"/><text x="297.5" y="-52" font-family="Helvetica,sans-Serif" font-size="10" text-anchor="middle">code</text><text x="297.5" y="-41" font-family="Helvetica,sans-Serif" font-size="10" text-anchor="middle">type</text></g></g></svg>