<svg xmlns="http://www.w3.org/2000/svg" xmlns:xlink="http://www.w3.org/1999/xlink" width="370pt" height="260" viewBox="0 0 370 195"><g id="graph0" class="graph" transform="scale(1 1) rotate(0) translate(4 191)"><title>rsdt</title><g id="node1" class="node"><title>Node1</title><g id="a_node1"><a><polygon fill="#bfbfbf" stroke="#000" points="195.5 -.5 195.5 -19.5 230.5 -19.5 230.5 -.5 195.5 -.5"/><text x="213" y="-7.5" font-family="Helvetica,sans-Serif" font-size="10" text-anchor="middle">rsdt</text></a></g></g><g id="node2" class="node"><title>Node2</title><g id="a_node2"><a target="_top" xlink:href="structsdt__header.html"><polygon fill="none" stroke="#000" points="111.5 -67.5 111.5 -86.5 182.5 -86.5 182.5 -67.5 111.5 -67.5"/><text x="147" y="-74.5" font-family="Helvetica,sans-Serif" font-size="10" text-anchor="middle">sdt_header</text></a></g></g><g id="edge1" class="edge"><title>Node2-&gt;Node1</title><path fill="none" stroke="#9a32cd" stroke-dasharray="5 2" d="M163.25,-60C176.19,-47.25 193.81,-29.89 204.24,-19.63"/><polygon fill="#9a32cd" stroke="#9a32cd" points="160.57 -57.72 155.9 -67.23 165.48 -62.71 160.57 -57.72"/><text x="201.5" y="-41" font-family="Helvetica,sans-Serif" font-size="10" text-anchor="middle">header</text></g><g id="node3" class="node"><title>Node3</title><g id="a_node3"><a><polygon fill="none" stroke="#bfbfbf" points="0 -167.5 0 -186.5 38 -186.5 38 -167.5 0 -167.5"/><text x="19" y="-174.5" font-family="Helvetica,sans-Serif" font-size="10" text-anchor="middle">char</text></a></g></g><g id="edge2" class="edge"><title>Node3-&gt;Node2</title><path fill="none" stroke="#9a32cd" stroke-dasharray="5 2" d="M17.19,-156.97C16.77,-141.03 18.93,-118.73 32,-105 42.82,-93.64 81.78,-86.21 111.38,-82.08"/><polygon fill="#9a32cd" stroke="#9a32cd" points="13.71 -157.48 17.83 -167.25 20.7 -157.05 13.71 -157.48"/><text x="65.5" y="-135.5" font-family="Helvetica,sans-Serif" font-size="10" text-anchor="middle">oem_id</text><text x="65.5" y="-124.5" font-family="Helvetica,sans-Serif" font-size="10" text-anchor="middle">oem_table_id</text><text x="65.5" y="-113.5" font-family="Helvetica,sans-Serif" font-size="10" text-anchor="middle">signature</text></g><g id="node4" class="node"><title>Node4</title><g id="a_node4"><a><polygon fill="none" stroke="#bfbfbf" points="204 -167.5 204 -186.5 260 -186.5 260 -167.5 204 -167.5"/><text x="232" y="-174.5" font-family="Helvetica,sans-Serif" font-size="10" text-anchor="middle">uint32_t</text></a></g></g><g id="edge5" class="edge"><title>Node4-&gt;Node1</title><path fill="none" stroke="#9a32cd" stroke-dasharray="5 2" d="M255.82,-161.01C259.54,-157.55 262.85,-153.53 265,-149 273.37,-131.33 269.89,-123.93 265,-105 256.14,-70.69 231.79,-35.53 219.82,-19.68"/><polygon fill="#9a32cd" stroke="#9a32cd" points="253.51 -158.37 247.86 -167.33 257.87 -163.85 253.51 -158.37"/><text x="310" y="-74.5" font-family="Helvetica,sans-Serif" font-size="10" text-anchor="middle">pointer_to_other_sdt</text></g><g id="edge3" class="edge"><title>Node4-&gt;Node2</title><path fill="none" stroke="#9a32cd" stroke-dasharray="5 2" d="M203.1,-162.37C196.97,-158.62 190.89,-154.14 186,-149 170.78,-133.02 173.74,-124.28 163,-105 159.61,-98.91 155.61,-92.16 152.45,-86.93"/><polygon fill="#9a32cd" stroke="#9a32cd" points="201.53 -165.51 211.96 -167.35 204.95 -159.4 201.53 -165.51"/><text x="225.5" y="-141" font-family="Helvetica,sans-Serif" font-size="10" text-anchor="middle">creator_id</text><text x="225.5" y="-130" font-family="Helvetica,sans-Serif" font-size="10" text-anchor="middle">creator_revision</text><text x="225.5" y="-119" font-family="Helvetica,sans-Serif" font-size="10" text-anchor="middle">length</text><text x="225.5" y="-108" font-family="Helvetica,sans-Serif" font-size="10" text-anchor="middle">oem_revision</text></g><g id="node5" class="node"><title>Node5</title><g id="a_node5"><a><polygon fill="none" stroke="#bfbfbf" points="84 -167.5 84 -186.5 134 -186.5 134 -167.5 84 -167.5"/><text x="109" y="-174.5" font-family="Helvetica,sans-Serif" font-size="10" text-anchor="middle">uint8_t</text></a></g></g><g id="edge4" class="edge"><title>Node5-&gt;Node2</title><path fill="none" stroke="#9a32cd" stroke-dasharray="5 2" d="M104.85,-156.99C102.58,-142.01 101.7,-121.06 110,-105 114.09,-97.09 121.68,-90.93 128.93,-86.51"/><polygon fill="#9a32cd" stroke="#9a32cd" points="101.45 -157.9 106.72 -167.09 108.34 -156.62 101.45 -157.9"/><text x="136.5" y="-130" font-family="Helvetica,sans-Serif" font-size="10" text-anchor="middle">checksum</text><text x="136.5" y="-119" font-family="Helvetica,sans-Serif" font-size="10" text-anchor="middle">revision</text></g></g></svg>