<svg xmlns="http://www.w3.org/2000/svg" xmlns:xlink="http://www.w3.org/1999/xlink" width="203pt" height="197pt" viewBox="0 0 202.67 197"><g id="graph0" class="graph" transform="scale(1 1) rotate(0) translate(4 193)"><title>heap</title><g id="node1" class="node"><title>Node1</title><g id="a_node1"><a><polygon fill="#bfbfbf" stroke="#000" points="71.17 -.5 71.17 -19.5 112.17 -19.5 112.17 -.5 71.17 -.5"/><text x="91.67" y="-7.5" font-family="Helvetica,sans-Serif" font-size="10" text-anchor="middle">heap</text></a></g></g><g id="node2" class="node"><title>Node2</title><g id="a_node2"><a><polygon fill="none" stroke="#bfbfbf" points="22.67 -169.5 22.67 -188.5 78.67 -188.5 78.67 -169.5 22.67 -169.5"/><text x="50.67" y="-176.5" font-family="Helvetica,sans-Serif" font-size="10" text-anchor="middle">uint64_t</text></a></g></g><g id="edge1" class="edge"><title>Node2-&gt;Node1</title><path fill="none" stroke="#9a32cd" stroke-dasharray="5 2" d="M35.27,-161.85C16.18,-139.78 -11.82,-99.26 5.67,-67 19.43,-41.63 50.21,-25.94 70.96,-17.84"/><polygon fill="#9a32cd" stroke="#9a32cd" points="32.74 -164.27 42.04 -169.35 37.94 -159.58 32.74 -164.27"/><text x="31.67" y="-103" font-family="Helvetica,sans-Serif" font-size="10" text-anchor="middle">end_addr</text><text x="31.67" y="-92" font-family="Helvetica,sans-Serif" font-size="10" text-anchor="middle">heap_addr</text><text x="31.67" y="-81" font-family="Helvetica,sans-Serif" font-size="10" text-anchor="middle">max_size</text><text x="31.67" y="-70" font-family="Helvetica,sans-Serif" font-size="10" text-anchor="middle">min_size</text></g><g id="node4" class="node"><title>Node4</title><g id="a_node4"><a target="_top" xlink:href="structheader.html"><polygon fill="none" stroke="#000" points="66.67 -79.5 66.67 -98.5 116.67 -98.5 116.67 -79.5 66.67 -79.5"/><text x="91.67" y="-86.5" font-family="Helvetica,sans-Serif" font-size="10" text-anchor="middle">header</text></a></g></g><g id="edge4" class="edge"><title>Node2-&gt;Node4</title><path fill="none" stroke="#9a32cd" stroke-dasharray="5 2" d="M54.44,-159.51C56.73,-150.11 60.1,-138.66 64.67,-129 69.95,-117.83 78.31,-106.36 84.33,-98.78"/><polygon fill="#9a32cd" stroke="#9a32cd" points="51 -158.85 52.24 -169.37 57.83 -160.37 51 -158.85"/><text x="81.67" y="-143" font-family="Helvetica,sans-Serif" font-size="10" text-anchor="middle">magic</text><text x="81.67" y="-132" font-family="Helvetica,sans-Serif" font-size="10" text-anchor="middle">size</text></g><g id="node3" class="node"><title>Node3</title><g id="a_node3"><a><polygon fill="none" stroke="#bfbfbf" points="108.67 -169.5 108.67 -188.5 158.67 -188.5 158.67 -169.5 108.67 -169.5"/><text x="133.67" y="-176.5" font-family="Helvetica,sans-Serif" font-size="10" text-anchor="middle">uint8_t</text></a></g></g><g id="edge2" class="edge"><title>Node3-&gt;Node1</title><path fill="none" stroke="#9a32cd" stroke-dasharray="5 2" d="M146.34,-161.14C161.27,-139.07 182.41,-99.39 168.67,-67 158.47,-42.96 131.53,-27.26 112.4,-18.77"/><polygon fill="#9a32cd" stroke="#9a32cd" points="143.37 -159.27 140.44 -169.45 149.08 -163.32 143.37 -159.27"/><text x="183.67" y="-92" font-family="Helvetica,sans-Serif" font-size="10" text-anchor="middle">rw</text><text x="183.67" y="-81" font-family="Helvetica,sans-Serif" font-size="10" text-anchor="middle">user</text></g><g id="edge5" class="edge"><title>Node3-&gt;Node4</title><path fill="none" stroke="#9a32cd" stroke-dasharray="5 2" d="M125.09,-160.03C116.18,-141.36 102.61,-112.93 95.83,-98.72"/><polygon fill="#9a32cd" stroke="#9a32cd" points="122.02 -161.72 129.49 -169.24 128.34 -158.71 122.02 -161.72"/><text x="131.17" y="-137.5" font-family="Helvetica,sans-Serif" font-size="10" text-anchor="middle">free</text></g><g id="edge3" class="edge"><title>Node4-&gt;Node1</title><path fill="none" stroke="#9a32cd" stroke-dasharray="5 2" d="M91.67,-69.31C91.67,-53.59 91.67,-31.81 91.67,-19.81"/><polygon fill="#9a32cd" stroke="#9a32cd" points="88.17 -69.47 91.67 -79.47 95.17 -69.47 88.17 -69.47"/><text x="113.17" y="-41" font-family="Helvetica,sans-Serif" font-size="10" text-anchor="middle">list_free</text></g><g id="edge6" class="edge"><title>Node4-&gt;Node4</title><path fill="none" stroke="#9a32cd" stroke-dasharray="5 2" d="M127.12,-96.22C131.66,-94.97 134.67,-92.56 134.67,-89 134.67,-83.16 126.58,-80.42 116.84,-80.78"/><polygon fill="#9a32cd" stroke="#9a32cd" points="126.46 -92.77 116.84 -97.22 127.14 -99.74 126.46 -92.77"/><text x="147.17" y="-92" font-family="Helvetica,sans-Serif" font-size="10" text-anchor="middle">next</text><text x="147.17" y="-81" font-family="Helvetica,sans-Serif" font-size="10" text-anchor="middle">prev</text></g></g></svg>