<svg xmlns="http://www.w3.org/2000/svg" xmlns:xlink="http://www.w3.org/1999/xlink" width="328pt" height="128pt" viewBox="0 0 328 128"><g id="graph0" class="graph" transform="scale(1 1) rotate(0) translate(4 124)"><title>filesystem_t</title><g id="node1" class="node"><title>Node1</title><g id="a_node1"><a xlink:title="Defines a filesystem driver."><polygon fill="#bfbfbf" stroke="#000" points="125.5 -.5 125.5 -19.5 202.5 -19.5 202.5 -.5 125.5 -.5"/><text x="164" y="-7.5" font-family="Helvetica,sans-Serif" font-size="10" text-anchor="middle">filesystem_t</text></a></g></g><g id="edge3" class="edge"><title>Node1-&gt;Node1</title><path fill="none" stroke="#9a32cd" stroke-dasharray="5 2" d="M212.72,-17.61C217.48,-16.08 220.5,-13.54 220.5,-10 220.5,-4.34 212.77,-1.24 202.56,-0.71"/><polygon fill="#9a32cd" stroke="#9a32cd" points="211.85 -14.21 202.56 -19.29 212.99 -21.11 211.85 -14.21"/><text x="233" y="-7.5" font-family="Helvetica,sans-Serif" font-size="10" text-anchor="middle">next</text></g><g id="node2" class="node"><title>Node2</title><g id="a_node2"><a><polygon fill="none" stroke="#bfbfbf" points="0 -100.5 0 -119.5 56 -119.5 56 -100.5 0 -100.5"/><text x="28" y="-107.5" font-family="Helvetica,sans-Serif" font-size="10" text-anchor="middle">uint64_t</text></a></g></g><g id="edge1" class="edge"><title>Node2-&gt;Node1</title><path fill="none" stroke="#9a32cd" stroke-dasharray="5 2" d="M37.59,-91.31C47.14,-75.26 63.2,-52.04 83,-38 95.46,-29.17 111,-23.07 125.13,-18.94"/><polygon fill="#9a32cd" stroke="#9a32cd" points="34.42 -89.8 32.52 -100.22 40.51 -93.26 34.42 -89.8"/><text x="106.5" y="-74" font-family="Helvetica,sans-Serif" font-size="10" text-anchor="middle">createdir</text><text x="106.5" y="-63" font-family="Helvetica,sans-Serif" font-size="10" text-anchor="middle">createfile</text><text x="106.5" y="-52" font-family="Helvetica,sans-Serif" font-size="10" text-anchor="middle">readfile</text><text x="106.5" y="-41" font-family="Helvetica,sans-Serif" font-size="10" text-anchor="middle">writefile</text></g><g id="node3" class="node"><title>Node3</title><g id="a_node3"><a><polygon fill="none" stroke="#bfbfbf" points="74.5 -100.5 74.5 -119.5 169.5 -119.5 169.5 -100.5 74.5 -100.5"/><text x="122" y="-107.5" font-family="Helvetica,sans-Serif" font-size="10" text-anchor="middle">void *(*)(void *)</text></a></g></g><g id="edge2" class="edge"><title>Node3-&gt;Node1</title><path fill="none" stroke="#9a32cd" stroke-dasharray="5 2" d="M129.67,-91.1C138.76,-69.89 153.53,-35.44 160.34,-19.54"/><polygon fill="#9a32cd" stroke="#9a32cd" points="126.45 -89.73 125.73 -100.3 132.88 -92.49 126.45 -89.73"/><text x="167" y="-57.5" font-family="Helvetica,sans-Serif" font-size="10" text-anchor="middle">getdir</text></g><g id="node4" class="node"><title>Node4</title><g id="a_node4"><a><polygon fill="none" stroke="#bfbfbf" points="188 -100.5 188 -119.5 226 -119.5 226 -100.5 188 -100.5"/><text x="207" y="-107.5" font-family="Helvetica,sans-Serif" font-size="10" text-anchor="middle">char</text></a></g></g><g id="edge4" class="edge"><title>Node4-&gt;Node1</title><path fill="none" stroke="#9a32cd" stroke-dasharray="5 2" d="M203.18,-90.38C199.69,-75.63 193.75,-54.78 185,-38 181.59,-31.47 176.56,-24.93 172.28,-19.93"/><polygon fill="#9a32cd" stroke="#9a32cd" points="199.79 -91.29 205.36 -100.31 206.63 -89.79 199.79 -91.29"/><text x="217.5" y="-74" font-family="Helvetica,sans-Serif" font-size="10" text-anchor="middle">mount</text><text x="217.5" y="-63" font-family="Helvetica,sans-Serif" font-size="10" text-anchor="middle">name</text><text x="217.5" y="-52" font-family="Helvetica,sans-Serif" font-size="10" text-anchor="middle">rm</text><text x="217.5" y="-41" font-family="Helvetica,sans-Serif" font-size="10" text-anchor="middle">rmdir</text></g><g id="node5" class="node"><title>Node5</title><g id="a_node5"><a><polygon fill="none" stroke="#bfbfbf" points="244.5 -100.5 244.5 -119.5 289.5 -119.5 289.5 -100.5 244.5 -100.5"/><text x="267" y="-107.5" font-family="Helvetica,sans-Serif" font-size="10" text-anchor="middle">size_t</text></a></g></g><g id="edge5" class="edge"><title>Node5-&gt;Node1</title><path fill="none" stroke="#9a32cd" stroke-dasharray="5 2" d="M264,-90.09C260.55,-74.21 253.39,-51.96 239,-38 229.07,-28.36 215.45,-22.13 202.54,-18.12"/><polygon fill="#9a32cd" stroke="#9a32cd" points="260.63 -91.12 265.91 -100.3 267.51 -89.83 260.63 -91.12"/><text x="290.5" y="-57.5" font-family="Helvetica,sans-Serif" font-size="10" text-anchor="middle">truncatefile</text></g></g></svg>