<svg xmlns="http://www.w3.org/2000/svg" xmlns:xlink="http://www.w3.org/1999/xlink" width="97pt" height="95pt" viewBox="0 0 97 95"><g id="graph0" class="graph" transform="scale(1 1) rotate(0) translate(4 91)"><title>gc_str</title><g id="node1" class="node"><title>Node1</title><g id="a_node1"><a><polygon fill="#bfbfbf" stroke="#000" points="0 -.5 0 -19.5 46 -19.5 46 -.5 0 -.5"/><text x="23" y="-7.5" font-family="Helvetica,sans-Serif" font-size="10" text-anchor="middle">gc_str</text></a></g></g><g id="edge2" class="edge"><title>Node1-&gt;Node1</title><path fill="none" stroke="#9a32cd" stroke-dasharray="5 2" d="M56.41,-15.33C60.96,-14.44 64,-12.67 64,-10 64,-5.62 55.83,-3.64 46.18,-4.05"/><polygon fill="#9a32cd" stroke="#9a32cd" points="55.95 -11.85 46.18 -15.95 56.37 -18.84 55.95 -11.85"/><text x="76.5" y="-7.5" font-family="Helvetica,sans-Serif" font-size="10" text-anchor="middle">next</text></g><g id="node2" class="node"><title>Node2</title><g id="a_node2"><a><polygon fill="none" stroke="#bfbfbf" points="4 -67.5 4 -86.5 42 -86.5 42 -67.5 4 -67.5"/><text x="23" y="-74.5" font-family="Helvetica,sans-Serif" font-size="10" text-anchor="middle">char</text></a></g></g><g id="edge1" class="edge"><title>Node2-&gt;Node1</title><path fill="none" stroke="#9a32cd" stroke-dasharray="5 2" d="M23,-57.04C23,-44.67 23,-29.12 23,-19.63"/><polygon fill="#9a32cd" stroke="#9a32cd" points="19.5 -57.23 23 -67.23 26.5 -57.23 19.5 -57.23"/><text x="31.5" y="-41" font-family="Helvetica,sans-Serif" font-size="10" text-anchor="middle">ptr</text></g></g></svg>