<svg xmlns="http://www.w3.org/2000/svg" xmlns:xlink="http://www.w3.org/1999/xlink" width="188pt" height="95pt" viewBox="0 0 188 95"><g id="graph0" class="graph" transform="scale(1 1) rotate(0) translate(4 91)"><title>symbol</title><g id="node1" class="node"><title>Node1</title><g id="a_node1"><a><polygon fill="#bfbfbf" stroke="#000" points="66.5 -.5 66.5 -19.5 119.5 -19.5 119.5 -.5 66.5 -.5"/><text x="93" y="-7.5" font-family="Helvetica,sans-Serif" font-size="10" text-anchor="middle">symbol</text></a></g></g><g id="edge3" class="edge"><title>Node1-&gt;Node1</title><path fill="none" stroke="#9a32cd" stroke-dasharray="5 2" d="M130.09,-15.17C134.57,-14.24 137.5,-12.51 137.5,-10 137.5,-5.88 129.61,-3.88 119.94,-4.01"/><polygon fill="#9a32cd" stroke="#9a32cd" points="129.62 -11.7 119.94 -15.99 130.19 -18.68 129.62 -11.7"/><text x="150" y="-7.5" font-family="Helvetica,sans-Serif" font-size="10" text-anchor="middle">next</text></g><g id="node2" class="node"><title>Node2</title><g id="a_node2"><a><polygon fill="none" stroke="#bfbfbf" points="0 -67.5 0 -86.5 56 -86.5 56 -67.5 0 -67.5"/><text x="28" y="-74.5" font-family="Helvetica,sans-Serif" font-size="10" text-anchor="middle">uint64_t</text></a></g></g><g id="edge1" class="edge"><title>Node2-&gt;Node1</title><path fill="none" stroke="#9a32cd" stroke-dasharray="5 2" d="M34.63,-57.58C37.67,-50.88 41.78,-43.59 47,-38 54.21,-30.29 64.12,-24.09 72.9,-19.59"/><polygon fill="#9a32cd" stroke="#9a32cd" points="31.2 -56.72 30.72 -67.3 37.7 -59.33 31.2 -56.72"/><text x="68" y="-41" font-family="Helvetica,sans-Serif" font-size="10" text-anchor="middle">address</text></g><g id="node3" class="node"><title>Node3</title><g id="a_node3"><a><polygon fill="none" stroke="#bfbfbf" points="74 -67.5 74 -86.5 112 -86.5 112 -67.5 74 -67.5"/><text x="93" y="-74.5" font-family="Helvetica,sans-Serif" font-size="10" text-anchor="middle">char</text></a></g></g><g id="edge2" class="edge"><title>Node3-&gt;Node1</title><path fill="none" stroke="#9a32cd" stroke-dasharray="5 2" d="M93,-57.04C93,-44.67 93,-29.12 93,-19.63"/><polygon fill="#9a32cd" stroke="#9a32cd" points="89.5 -57.23 93 -67.23 96.5 -57.23 89.5 -57.23"/><text x="108.5" y="-41" font-family="Helvetica,sans-Serif" font-size="10" text-anchor="middle">name</text></g><g id="node4" class="node"><title>Node4</title><g id="a_node4"><a><polygon fill="none" stroke="#bfbfbf" points="130 -67.5 130 -86.5 180 -86.5 180 -67.5 130 -67.5"/><text x="155" y="-74.5" font-family="Helvetica,sans-Serif" font-size="10" text-anchor="middle">uint8_t</text></a></g></g><g id="edge4" class="edge"><title>Node4-&gt;Node1</title><path fill="none" stroke="#9a32cd" stroke-dasharray="5 2" d="M144.34,-58.76C139.73,-51.94 134.02,-44.26 128,-38 121.4,-31.14 112.99,-24.59 106.06,-19.66"/><polygon fill="#9a32cd" stroke="#9a32cd" points="141.49 -60.8 149.86 -67.3 147.37 -57 141.49 -60.8"/><text x="149.5" y="-41" font-family="Helvetica,sans-Serif" font-size="10" text-anchor="middle">type</text></g></g></svg>