<svg xmlns="http://www.w3.org/2000/svg" xmlns:xlink="http://www.w3.org/1999/xlink" width="320" height="197pt" viewBox="0 0 240 197"><g id="graph0" class="graph" transform="scale(1 1) rotate(0) translate(4 193)"><title>heap_t</title><g id="node1" class="node"><title>Node1</title><g id="a_node1"><a><polygon fill="#bfbfbf" stroke="#000" points="103 -.5 103 -19.5 153 -19.5 153 -.5 103 -.5"/><text x="128" y="-7.5" font-family="Helvetica,sans-Serif" font-size="10" text-anchor="middle">heap_t</text></a></g></g><g id="node2" class="node"><title>Node2</title><g id="a_node2"><a target="_top" xlink:href="structheader__t.html"><polygon fill="none" stroke="#000" points="98.5 -79.5 98.5 -98.5 157.5 -98.5 157.5 -79.5 98.5 -79.5"/><text x="128" y="-86.5" font-family="Helvetica,sans-Serif" font-size="10" text-anchor="middle">header_t</text></a></g></g><g id="edge1" class="edge"><title>Node2-&gt;Node1</title><path fill="none" stroke="#9a32cd" stroke-dasharray="5 2" d="M128,-69.31C128,-53.59 128,-31.81 128,-19.81"/><polygon fill="#9a32cd" stroke="#9a32cd" points="124.5 -69.47 128 -79.47 131.5 -69.47 124.5 -69.47"/><text x="149.5" y="-41" font-family="Helvetica,sans-Serif" font-size="10" text-anchor="middle">list_free</text></g><g id="node3" class="node"><title>Node3</title><g id="a_node3"><a><polygon fill="none" stroke="#bfbfbf" points="0 -169.5 0 -188.5 56 -188.5 56 -169.5 0 -169.5"/><text x="28" y="-176.5" font-family="Helvetica,sans-Serif" font-size="10" text-anchor="middle">uint64_t</text></a></g></g><g id="edge5" class="edge"><title>Node3-&gt;Node1</title><path fill="none" stroke="#9a32cd" stroke-dasharray="5 2" d="M24.7,-159.45C21.55,-136.06 19.54,-95.47 37,-67 51.84,-42.8 81.44,-27.53 102.87,-19.15"/><polygon fill="#9a32cd" stroke="#9a32cd" points="21.25 -160.08 26.25 -169.42 28.17 -159 21.25 -160.08"/><text x="63" y="-103" font-family="Helvetica,sans-Serif" font-size="10" text-anchor="middle">end_addr</text><text x="63" y="-92" font-family="Helvetica,sans-Serif" font-size="10" text-anchor="middle">heap_addr</text><text x="63" y="-81" font-family="Helvetica,sans-Serif" font-size="10" text-anchor="middle">max_size</text><text x="63" y="-70" font-family="Helvetica,sans-Serif" font-size="10" text-anchor="middle">min_size</text></g><g id="edge2" class="edge"><title>Node3-&gt;Node2</title><path fill="none" stroke="#9a32cd" stroke-dasharray="5 2" d="M45.14,-162.18C55.69,-152.51 69.53,-139.93 82,-129 94.12,-118.37 108.31,-106.41 117.68,-98.58"/><polygon fill="#9a32cd" stroke="#9a32cd" points="42.46 -159.88 37.47 -169.23 47.2 -165.04 42.46 -159.88"/><text x="99" y="-143" font-family="Helvetica,sans-Serif" font-size="10" text-anchor="middle">magic</text><text x="99" y="-132" font-family="Helvetica,sans-Serif" font-size="10" text-anchor="middle">size</text></g><g id="node4" class="node"><title>Node4</title><g id="a_node4"><a><polygon fill="none" stroke="#bfbfbf" points="74.5 -169.5 74.5 -188.5 163.5 -188.5 163.5 -169.5 74.5 -169.5"/><text x="119" y="-176.5" font-family="Helvetica,sans-Serif" font-size="10" text-anchor="middle">struct header *</text></a></g></g><g id="edge3" class="edge"><title>Node4-&gt;Node2</title><path fill="none" stroke="#9a32cd" stroke-dasharray="5 2" d="M119.17,-159.04C119.41,-149.93 119.92,-138.88 121,-129 122.15,-118.47 124.45,-106.5 126.1,-98.63"/><polygon fill="#9a32cd" stroke="#9a32cd" points="115.67 -159.24 119 -169.3 122.67 -159.36 115.67 -159.24"/><text x="133.5" y="-143" font-family="Helvetica,sans-Serif" font-size="10" text-anchor="middle">next</text><text x="133.5" y="-132" font-family="Helvetica,sans-Serif" font-size="10" text-anchor="middle">prev</text></g><g id="node5" class="node"><title>Node5</title><g id="a_node5"><a><polygon fill="none" stroke="#bfbfbf" points="182 -169.5 182 -188.5 232 -188.5 232 -169.5 182 -169.5"/><text x="207" y="-176.5" font-family="Helvetica,sans-Serif" font-size="10" text-anchor="middle">uint8_t</text></a></g></g><g id="edge6" class="edge"><title>Node5-&gt;Node1</title><path fill="none" stroke="#9a32cd" stroke-dasharray="5 2" d="M207.3,-159.2C206.82,-130.34 202.11,-74.64 175,-38 169.07,-29.98 159.99,-23.97 151.39,-19.69"/><polygon fill="#9a32cd" stroke="#9a32cd" points="203.8 -159.48 207.3 -169.48 210.8 -159.48 203.8 -159.48"/><text x="214" y="-92" font-family="Helvetica,sans-Serif" font-size="10" text-anchor="middle">rw</text><text x="214" y="-81" font-family="Helvetica,sans-Serif" font-size="10" text-anchor="middle">user</text></g><g id="edge4" class="edge"><title>Node5-&gt;Node2</title><path fill="none" stroke="#9a32cd" stroke-dasharray="5 2" d="M183.85,-163.57C178.67,-159.81 173.41,-155.53 169,-151 152.97,-134.55 139.21,-111.08 132.46,-98.59"/><polygon fill="#9a32cd" stroke="#9a32cd" points="182.1 -166.61 192.33 -169.36 186.05 -160.83 182.1 -166.61"/><text x="180.5" y="-137.5" font-family="Helvetica,sans-Serif" font-size="10" text-anchor="middle">free</text></g></g></svg>