<svg xmlns="http://www.w3.org/2000/svg" xmlns:xlink="http://www.w3.org/1999/xlink" id="main" onload="init(evt)" version="1.1" xml:space="preserve"><style type="text/css">.edge:hover path{stroke:red}.edge:hover polygon{stroke:red;fill:red}</style><script type="text/javascript"><![CDATA[
var edges = document.getElementsByTagName('g');
if (edges && edges.length) {
  for (var i=0;i<edges.length;i++) {
    if (edges[i].id.substr(0,4)=='edge') {
      edges[i].setAttribute('class','edge');
    }
  }
}
]]></script><defs><circle id="rim" cx="0" cy="0" r="7"/><circle id="rim2" cx="0" cy="0" r="3.5"/><g id="zoomPlus"><use fill="#404040" xlink:href="#rim"><set attributeName="fill" begin="zoomplus.mouseover" end="zoomplus.mouseout" to="#808080"/></use><path fill="none" stroke="#fff" stroke-width="1.5" d="M-4,0h8M0,-4v8" pointer-events="none"/></g><g id="zoomMin"><use fill="#404040" xlink:href="#rim"><set attributeName="fill" begin="zoomminus.mouseover" end="zoomminus.mouseout" to="#808080"/></use><path fill="none" stroke="#fff" stroke-width="1.5" d="M-4,0h8" pointer-events="none"/></g><g id="dirArrow"><path fill="none" stroke="#fff" stroke-width="1.5" d="M0,-3.0v7 M-2.5,-0.5L0,-3.0L2.5,-0.5"/></g><g id="resetDef"><use fill="#404040" xlink:href="#rim2"><set attributeName="fill" begin="reset.mouseover" end="reset.mouseout" to="#808080"/></use></g></defs><script type="text/javascript">var viewWidth = 872; var viewHeight = 249; var sectionId = &apos;dynsection-0&apos;;</script><script xlink:href="svgpan.js"/><svg id="graph" class="graph"><g id="viewport"><title>__attribute__</title><g id="node1" class="node"><title>Node1</title><g id="a_node1"><a><polygon fill="#bfbfbf" stroke="#000" points="362 -.5 362 -19.5 442 -19.5 442 -.5 362 -.5"/><text x="402" y="-7.5" font-family="Helvetica,sans-Serif" font-size="10" text-anchor="middle">__attribute__</text></a></g></g><g id="node2" class="node"><title>Node2</title><g id="a_node2"><a><polygon fill="none" stroke="#bfbfbf" points="0 -221.5 0 -240.5 56 -240.5 56 -221.5 0 -221.5"/><text x="28" y="-228.5" font-family="Helvetica,sans-Serif" font-size="10" text-anchor="middle">uint16_t</text></a></g></g><g id="edge1" class="edge"><title>Node2-&gt;Node1</title><path fill="none" stroke="#9a32cd" stroke-dasharray="5 2" d="M20.51,-211.53C6.46,-173.49 -18.65,-85.97 26,-38 48.52,-13.81 269.6,-10.98 361.87,-10.87"/><polygon fill="#9a32cd" stroke="#9a32cd" points="17.41 -213.2 24.28 -221.26 23.93 -210.67 17.41 -213.2"/><text x="84" y="-162" font-family="Helvetica,sans-Serif" font-size="10" text-anchor="middle">interleave_unit_size</text><text x="84" y="-151" font-family="Helvetica,sans-Serif" font-size="10" text-anchor="middle">lsb_blocksize</text><text x="84" y="-140" font-family="Helvetica,sans-Serif" font-size="10" text-anchor="middle">lsb_volumeseqno</text><text x="84" y="-129" font-family="Helvetica,sans-Serif" font-size="10" text-anchor="middle">lsb_volumesetsize</text><text x="84" y="-118" font-family="Helvetica,sans-Serif" font-size="10" text-anchor="middle">msb_blocksize</text><text x="84" y="-107" font-family="Helvetica,sans-Serif" font-size="10" text-anchor="middle">msb_volumeseqno</text><text x="84" y="-96" font-family="Helvetica,sans-Serif" font-size="10" text-anchor="middle">msb_volumesetsize</text><text x="84" y="-85" font-family="Helvetica,sans-Serif" font-size="10" text-anchor="middle">sequence_number_lsb</text><text x="84" y="-74" font-family="Helvetica,sans-Serif" font-size="10" text-anchor="middle">sequence_number_msb</text></g><g id="node3" class="node"><title>Node3</title><g id="a_node3"><a><polygon fill="none" stroke="#bfbfbf" points="148 -221.5 148 -240.5 186 -240.5 186 -221.5 148 -221.5"/><text x="167" y="-228.5" font-family="Helvetica,sans-Serif" font-size="10" text-anchor="middle">char</text></a></g></g><g id="edge2" class="edge"><title>Node3-&gt;Node1</title><path fill="none" stroke="#9a32cd" stroke-dasharray="5 2" d="M160.66,-211.59C148.89,-173.65 128.68,-86.31 173,-38 185.52,-24.36 299.53,-16.33 361.82,-12.93"/><polygon fill="#9a32cd" stroke="#9a32cd" points="157.4 -212.87 163.83 -221.29 164.05 -210.7 157.4 -212.87"/><text x="215" y="-173" font-family="Helvetica,sans-Serif" font-size="10" text-anchor="middle">abstract_file</text><text x="215" y="-162" font-family="Helvetica,sans-Serif" font-size="10" text-anchor="middle">application_id</text><text x="215" y="-151" font-family="Helvetica,sans-Serif" font-size="10" text-anchor="middle">bibliographic_file</text><text x="215" y="-140" font-family="Helvetica,sans-Serif" font-size="10" text-anchor="middle">copyright_file</text><text x="215" y="-129" font-family="Helvetica,sans-Serif" font-size="10" text-anchor="middle">data_preparer</text><text x="215" y="-118" font-family="Helvetica,sans-Serif" font-size="10" text-anchor="middle">day</text><text x="215" y="-107" font-family="Helvetica,sans-Serif" font-size="10" text-anchor="middle">escape_seq</text><text x="215" y="-96" font-family="Helvetica,sans-Serif" font-size="10" text-anchor="middle">filename</text><text x="215" y="-85" font-family="Helvetica,sans-Serif" font-size="10" text-anchor="middle">hour</text><text x="215" y="-74" font-family="Helvetica,sans-Serif" font-size="10" text-anchor="middle">millisecond</text><text x="215" y="-63" font-family="Helvetica,sans-Serif" font-size="10" text-anchor="middle">...</text></g><g id="node4" class="node"><title>Node4</title><g id="a_node4"><a><polygon fill="none" stroke="#bfbfbf" points="246 -221.5 246 -240.5 302 -240.5 302 -221.5 246 -221.5"/><text x="274" y="-228.5" font-family="Helvetica,sans-Serif" font-size="10" text-anchor="middle">uint32_t</text></a></g></g><g id="edge3" class="edge"><title>Node4-&gt;Node1</title><path fill="none" stroke="#9a32cd" stroke-dasharray="5 2" d="M269.53,-211.34C261.7,-173.6 250.1,-87.58 293,-38 302.06,-27.53 334.6,-20.37 361.79,-16.07"/><polygon fill="#9a32cd" stroke="#9a32cd" points="266.19 -212.41 271.78 -221.41 273.02 -210.89 266.19 -212.41"/><text x="345.5" y="-195" font-family="Helvetica,sans-Serif" font-size="10" text-anchor="middle">data_length_lsb</text><text x="345.5" y="-184" font-family="Helvetica,sans-Serif" font-size="10" text-anchor="middle">data_length_msb</text><text x="345.5" y="-173" font-family="Helvetica,sans-Serif" font-size="10" text-anchor="middle">extent_lba_lsb</text><text x="345.5" y="-162" font-family="Helvetica,sans-Serif" font-size="10" text-anchor="middle">extent_lba_msb</text><text x="293" y="-151" font-family="Helvetica,sans-Serif" font-size="10" text-anchor="start">lsb_optpathtable_L</text><text x="345.5" y="-140" font-family="Helvetica,sans-Serif" font-size="10" text-anchor="middle">_lba</text><text x="293" y="-129" font-family="Helvetica,sans-Serif" font-size="10" text-anchor="start">lsb_optpathtable</text><text x="345.5" y="-118" font-family="Helvetica,sans-Serif" font-size="10" text-anchor="middle">_M_lba</text><text x="293" y="-107" font-family="Helvetica,sans-Serif" font-size="10" text-anchor="start">lsb_pathtable_L</text><text x="345.5" y="-96" font-family="Helvetica,sans-Serif" font-size="10" text-anchor="middle">_lba</text><text x="293" y="-85" font-family="Helvetica,sans-Serif" font-size="10" text-anchor="start">lsb_pathtable</text><text x="345.5" y="-74" font-family="Helvetica,sans-Serif" font-size="10" text-anchor="middle">_M_lba</text><text x="345.5" y="-63" font-family="Helvetica,sans-Serif" font-size="10" text-anchor="middle">lsb_pathtablesize</text><text x="345.5" y="-52" font-family="Helvetica,sans-Serif" font-size="10" text-anchor="middle">lsb_volumespacesize</text><text x="345.5" y="-41" font-family="Helvetica,sans-Serif" font-size="10" text-anchor="middle">...</text></g><g id="node5" class="node"><title>Node5</title><g id="a_node5"><a><polygon fill="none" stroke="#bfbfbf" points="377 -221.5 377 -240.5 427 -240.5 427 -221.5 377 -221.5"/><text x="402" y="-228.5" font-family="Helvetica,sans-Serif" font-size="10" text-anchor="middle">uint8_t</text></a></g></g><g id="edge4" class="edge"><title>Node5-&gt;Node1</title><path fill="none" stroke="#9a32cd" stroke-dasharray="5 2" d="M402,-211.26C402,-166.03 402,-52.22 402,-19.76"/><polygon fill="#9a32cd" stroke="#9a32cd" points="398.5 -211.41 402 -221.41 405.5 -211.41 398.5 -211.41"/><text x="442" y="-178.5" font-family="Helvetica,sans-Serif" font-size="10" text-anchor="middle">application_use</text><text x="442" y="-167.5" font-family="Helvetica,sans-Serif" font-size="10" text-anchor="middle">attribute_length</text><text x="442" y="-156.5" font-family="Helvetica,sans-Serif" font-size="10" text-anchor="middle">day</text><text x="442" y="-145.5" font-family="Helvetica,sans-Serif" font-size="10" text-anchor="middle">file_flags</text><text x="402" y="-134.5" font-family="Helvetica,sans-Serif" font-size="10" text-anchor="start">file_structure</text><text x="442" y="-123.5" font-family="Helvetica,sans-Serif" font-size="10" text-anchor="middle">_version</text><text x="442" y="-112.5" font-family="Helvetica,sans-Serif" font-size="10" text-anchor="middle">filename_length</text><text x="442" y="-101.5" font-family="Helvetica,sans-Serif" font-size="10" text-anchor="middle">hour</text><text x="442" y="-90.5" font-family="Helvetica,sans-Serif" font-size="10" text-anchor="middle">length</text><text x="442" y="-79.5" font-family="Helvetica,sans-Serif" font-size="10" text-anchor="middle">minute</text><text x="442" y="-68.5" font-family="Helvetica,sans-Serif" font-size="10" text-anchor="middle">month</text><text x="442" y="-57.5" font-family="Helvetica,sans-Serif" font-size="10" text-anchor="middle">...</text></g><g id="node6" class="node"><title>Node6</title><g id="a_node6"><a><polygon fill="none" stroke="#bfbfbf" points="448 -221.5 448 -240.5 554 -240.5 554 -221.5 448 -221.5"/><text x="501" y="-228.5" font-family="Helvetica,sans-Serif" font-size="10" text-anchor="middle">ISO9660_directory</text></a></g></g><g id="edge5" class="edge"><title>Node6-&gt;Node1</title><path fill="none" stroke="#9a32cd" stroke-dasharray="5 2" d="M505.36,-211.11C512.81,-173.63 523.57,-89.08 483,-38 473.13,-25.58 457.37,-18.83 442.35,-15.17"/><polygon fill="#9a32cd" stroke="#9a32cd" points="501.88 -210.63 503.21 -221.14 508.72 -212.09 501.88 -210.63"/><text x="548" y="-118" font-family="Helvetica,sans-Serif" font-size="10" text-anchor="middle">root_directory</text></g><g id="node7" class="node"><title>Node7</title><g id="a_node7"><a><polygon fill="none" stroke="#bfbfbf" points="572.5 -221.5 572.5 -240.5 671.5 -240.5 671.5 -221.5 572.5 -221.5"/><text x="622" y="-228.5" font-family="Helvetica,sans-Serif" font-size="10" text-anchor="middle">DIRECTORY_date</text></a></g></g><g id="edge6" class="edge"><title>Node7-&gt;Node1</title><path fill="none" stroke="#9a32cd" stroke-dasharray="5 2" d="M621.38,-211.12C619.52,-167.53 612.54,-61.79 588,-38 567.79,-18.41 490.37,-12.96 442.01,-11.49"/><polygon fill="#9a32cd" stroke="#9a32cd" points="617.88 -211.35 621.76 -221.21 624.88 -211.09 617.88 -211.35"/><text x="658" y="-118" font-family="Helvetica,sans-Serif" font-size="10" text-anchor="middle">recording_date</text></g><g id="node8" class="node"><title>Node8</title><g id="a_node8"><a><polygon fill="none" stroke="#bfbfbf" points="690 -221.5 690 -240.5 754 -240.5 754 -221.5 690 -221.5"/><text x="722" y="-228.5" font-family="Helvetica,sans-Serif" font-size="10" text-anchor="middle">PVD_date</text></a></g></g><g id="edge7" class="edge"><title>Node8-&gt;Node1</title><path fill="none" stroke="#9a32cd" stroke-dasharray="5 2" d="M726.62,-211.23C734.88,-172.62 747.19,-84.08 700,-38 681.93,-20.35 519.3,-13.94 442.2,-11.87"/><polygon fill="#9a32cd" stroke="#9a32cd" points="723.18 -210.58 724.35 -221.11 730 -212.15 723.18 -210.58"/><text x="799" y="-134.5" font-family="Helvetica,sans-Serif" font-size="10" text-anchor="middle">volume_creation_date</text><text x="799" y="-123.5" font-family="Helvetica,sans-Serif" font-size="10" text-anchor="middle">volume_effective_date</text><text x="799" y="-112.5" font-family="Helvetica,sans-Serif" font-size="10" text-anchor="middle">volume_expire_date</text><text x="799" y="-101.5" font-family="Helvetica,sans-Serif" font-size="10" text-anchor="middle">volume_modification_date</text></g></g></svg><g id="navigator" fill="#404254" transform="translate(0 0)"><rect width="60" height="60" x="0" y="0" fill="#f2f5e9" fill-opacity=".5" stroke="#606060" stroke-width=".5"/><use id="zoomplus" x="17" y="9" onmousedown="handleZoom(evt,'in')" xlink:href="#zoomPlus"/><use id="zoomminus" x="42" y="9" onmousedown="handleZoom(evt,'out')" xlink:href="#zoomMin"/><use id="reset" x="30" y="36" onmousedown="handleReset()" xlink:href="#resetDef"/><g id="arrowUp" onmousedown="handlePan(0,-1)" transform="translate(30 24)" xlink:href="#dirArrow"><use fill="#404040" xlink:href="#rim"><set attributeName="fill" begin="arrowUp.mouseover" end="arrowUp.mouseout" to="#808080"/></use><path fill="none" stroke="#fff" stroke-width="1.5" d="M0,-3.0v7 M-2.5,-0.5L0,-3.0L2.5,-0.5"/></g><g id="arrowRight" onmousedown="handlePan(1,0)" transform="rotate(90) translate(36 -43)" xlink:href="#dirArrow"><use fill="#404040" xlink:href="#rim"><set attributeName="fill" begin="arrowRight.mouseover" end="arrowRight.mouseout" to="#808080"/></use><path fill="none" stroke="#fff" stroke-width="1.5" d="M0,-3.0v7 M-2.5,-0.5L0,-3.0L2.5,-0.5"/></g><g id="arrowDown" onmousedown="handlePan(0,1)" transform="rotate(180) translate(-30 -48)" xlink:href="#dirArrow"><use fill="#404040" xlink:href="#rim"><set attributeName="fill" begin="arrowDown.mouseover" end="arrowDown.mouseout" to="#808080"/></use><path fill="none" stroke="#fff" stroke-width="1.5" d="M0,-3.0v7 M-2.5,-0.5L0,-3.0L2.5,-0.5"/></g><g id="arrowLeft" onmousedown="handlePan(-1,0)" transform="rotate(270) translate(-36 17)" xlink:href="#dirArrow"><use fill="#404040" xlink:href="#rim"><set attributeName="fill" begin="arrowLeft.mouseover" end="arrowLeft.mouseout" to="#808080"/></use><path fill="none" stroke="#fff" stroke-width="1.5" d="M0,-3.0v7 M-2.5,-0.5L0,-3.0L2.5,-0.5"/></g></g><svg width="100%" height="30" preserveAspectRatio="xMaxYMin meet" viewBox="0 0 15 15"><g id="arrow_out" transform="scale(0.3 0.3)"><a target="_base" xlink:href="struct____attribute______coll__graph_org.svg"><rect id="button" width="38" height="38" x="6" y="6" fill="#f2f5e9" fill-opacity=".5" stroke="#606060" stroke-width="1" rx="5" ry="5"/><path id="arrow" d="M 11.500037,31.436501 C 11.940474,20.09759 22.043105,11.32322 32.158766,21.979434 L 37.068811,17.246167 C 37.068811,17.246167 37.088388,32 37.088388,32 L 22.160133,31.978069 C 22.160133,31.978069 26.997745,27.140456 26.997745,27.140456 C 18.528582,18.264221 13.291696,25.230495 11.500037,31.436501 z" style="fill:#404040"/></a></g></svg></svg>