<svg xmlns="http://www.w3.org/2000/svg" xmlns:xlink="http://www.w3.org/1999/xlink" width="178pt" height="95pt" viewBox="0 0 178 95"><g id="graph0" class="graph" transform="scale(1 1) rotate(0) translate(4 91)"><title>ub_var_int</title><g id="node1" class="node"><title>Node1</title><g id="a_node1"><a xlink:title="An integer variable."><polygon fill="#bfbfbf" stroke="#000" points="55 -.5 55 -19.5 123 -19.5 123 -.5 55 -.5"/><text x="89" y="-7.5" font-family="Helvetica,sans-Serif" font-size="10" text-anchor="middle">ub_var_int</text></a></g></g><g id="edge1" class="edge"><title>Node1-&gt;Node1</title><path fill="none" stroke="#9a32cd" stroke-dasharray="5 2" d="M133.15,-15.02C137.92,-14.06 141,-12.38 141,-10 141,-6.19 133.13,-4.19 123.01,-4.01"/><polygon fill="#9a32cd" stroke="#9a32cd" points="132.63 -11.55 123.01 -15.99 133.3 -18.52 132.63 -11.55"/><text x="153.5" y="-7.5" font-family="Helvetica,sans-Serif" font-size="10" text-anchor="middle">next</text></g><g id="node2" class="node"><title>Node2</title><g id="a_node2"><a><polygon fill="none" stroke="#bfbfbf" points="0 -67.5 0 -86.5 38 -86.5 38 -67.5 0 -67.5"/><text x="19" y="-74.5" font-family="Helvetica,sans-Serif" font-size="10" text-anchor="middle">char</text></a></g></g><g id="edge2" class="edge"><title>Node2-&gt;Node1</title><path fill="none" stroke="#9a32cd" stroke-dasharray="5 2" d="M25.5,-57.46C28.52,-50.74 32.66,-43.47 38,-38 45.77,-30.05 56.39,-23.91 65.93,-19.52"/><polygon fill="#9a32cd" stroke="#9a32cd" points="22.06 -56.64 21.64 -67.22 28.57 -59.21 22.06 -56.64"/><text x="61.5" y="-41" font-family="Helvetica,sans-Serif" font-size="10" text-anchor="middle">varname</text></g><g id="node3" class="node"><title>Node3</title><g id="a_node3"><a><polygon fill="none" stroke="#bfbfbf" points="64 -67.5 64 -86.5 114 -86.5 114 -67.5 64 -67.5"/><text x="89" y="-74.5" font-family="Helvetica,sans-Serif" font-size="10" text-anchor="middle">int64_t</text></a></g></g><g id="edge3" class="edge"><title>Node3-&gt;Node1</title><path fill="none" stroke="#9a32cd" stroke-dasharray="5 2" d="M89,-57.04C89,-44.67 89,-29.12 89,-19.63"/><polygon fill="#9a32cd" stroke="#9a32cd" points="85.5 -57.23 89 -67.23 92.5 -57.23 85.5 -57.23"/><text x="104.5" y="-41" font-family="Helvetica,sans-Serif" font-size="10" text-anchor="middle">value</text></g><g id="node4" class="node"><title>Node4</title><g id="a_node4"><a><polygon fill="none" stroke="#bfbfbf" points="132 -67.5 132 -86.5 170 -86.5 170 -67.5 132 -67.5"/><text x="151" y="-74.5" font-family="Helvetica,sans-Serif" font-size="10" text-anchor="middle">bool</text></a></g></g><g id="edge4" class="edge"><title>Node4-&gt;Node1</title><path fill="none" stroke="#9a32cd" stroke-dasharray="5 2" d="M140.34,-58.76C135.73,-51.94 130.02,-44.26 124,-38 117.4,-31.14 108.99,-24.59 102.06,-19.66"/><polygon fill="#9a32cd" stroke="#9a32cd" points="137.49 -60.8 145.86 -67.3 143.37 -57 137.49 -60.8"/><text x="150" y="-41" font-family="Helvetica,sans-Serif" font-size="10" text-anchor="middle">global</text></g></g></svg>