<svg xmlns="http://www.w3.org/2000/svg" xmlns:xlink="http://www.w3.org/1999/xlink" width="115pt" height="95pt" viewBox="0 0 115 95"><g id="graph0" class="graph" transform="scale(1 1) rotate(0) translate(4 91)"><title>ubasic_int_fn</title><g id="node1" class="node"><title>Node1</title><g id="a_node1"><a xlink:title="Builtin integer function."><polygon fill="#bfbfbf" stroke="#000" points="9.5 -.5 9.5 -19.5 90.5 -19.5 90.5 -.5 9.5 -.5"/><text x="50" y="-7.5" font-family="Helvetica,sans-Serif" font-size="10" text-anchor="middle">ubasic_int_fn</text></a></g></g><g id="node2" class="node"><title>Node2</title><g id="a_node2"><a><polygon fill="none" stroke="#bfbfbf" points="0 -67.5 0 -86.5 38 -86.5 38 -67.5 0 -67.5"/><text x="19" y="-74.5" font-family="Helvetica,sans-Serif" font-size="10" text-anchor="middle">char</text></a></g></g><g id="edge1" class="edge"><title>Node2-&gt;Node1</title><path fill="none" stroke="#9a32cd" stroke-dasharray="5 2" d="M21.72,-57.16C23.07,-50.85 25.08,-43.93 28,-38 31.32,-31.28 36.58,-24.73 41.13,-19.77"/><polygon fill="#9a32cd" stroke="#9a32cd" points="18.19 -57.02 19.91 -67.48 25.08 -58.23 18.19 -57.02"/><text x="43.5" y="-41" font-family="Helvetica,sans-Serif" font-size="10" text-anchor="middle">name</text></g><g id="node3" class="node"><title>Node3</title><g id="a_node3"><a><polygon fill="none" stroke="#bfbfbf" points="56 -67.5 56 -86.5 106 -86.5 106 -67.5 56 -67.5"/><text x="81" y="-74.5" font-family="Helvetica,sans-Serif" font-size="10" text-anchor="middle">int64_t</text></a></g></g><g id="edge2" class="edge"><title>Node3-&gt;Node1</title><path fill="none" stroke="#9a32cd" stroke-dasharray="5 2" d="M72.49,-58.16C66.51,-45.63 58.78,-29.41 54.11,-19.63"/><polygon fill="#9a32cd" stroke="#9a32cd" points="69.36 -59.71 76.82 -67.23 75.67 -56.7 69.36 -59.71"/><text x="87" y="-41" font-family="Helvetica,sans-Serif" font-size="10" text-anchor="middle">handler</text></g></g></svg>