<svg xmlns="http://www.w3.org/2000/svg" xmlns:xlink="http://www.w3.org/1999/xlink" width="332" height="156" viewBox="0 0 249 117"><g id="graph0" class="graph" transform="scale(1 1) rotate(0) translate(4 113)"><title>idt_entry_t</title><g id="node1" class="node"><title>Node1</title><g id="a_node1"><a><polygon fill="#bfbfbf" stroke="#000" points="67.5 -.5 67.5 -19.5 136.5 -19.5 136.5 -.5 67.5 -.5"/><text x="102" y="-7.5" font-family="Helvetica,sans-Serif" font-size="10" text-anchor="middle">idt_entry_t</text></a></g></g><g id="node2" class="node"><title>Node2</title><g id="a_node2"><a><polygon fill="none" stroke="#bfbfbf" points="0 -89.5 0 -108.5 56 -108.5 56 -89.5 0 -89.5"/><text x="28" y="-96.5" font-family="Helvetica,sans-Serif" font-size="10" text-anchor="middle">uint16_t</text></a></g></g><g id="edge1" class="edge"><title>Node2-&gt;Node1</title><path fill="none" stroke="#9a32cd" stroke-dasharray="5 2" d="M32.94,-79.68C37.13,-66.84 44.21,-49.9 55,-38 62.08,-30.19 71.96,-24.04 80.83,-19.6"/><polygon fill="#9a32cd" stroke="#9a32cd" points="29.57 -78.72 30.08 -89.3 36.28 -80.72 29.57 -78.72"/><text x="76.5" y="-63" font-family="Helvetica,sans-Serif" font-size="10" text-anchor="middle">offset_1</text><text x="76.5" y="-52" font-family="Helvetica,sans-Serif" font-size="10" text-anchor="middle">offset_2</text><text x="76.5" y="-41" font-family="Helvetica,sans-Serif" font-size="10" text-anchor="middle">selector</text></g><g id="node3" class="node"><title>Node3</title><g id="a_node3"><a><polygon fill="none" stroke="#bfbfbf" points="74 -89.5 74 -108.5 130 -108.5 130 -89.5 74 -89.5"/><text x="102" y="-96.5" font-family="Helvetica,sans-Serif" font-size="10" text-anchor="middle">uint32_t</text></a></g></g><g id="edge2" class="edge"><title>Node3-&gt;Node1</title><path fill="none" stroke="#9a32cd" stroke-dasharray="5 2" d="M102,-79.19C102,-60.74 102,-33.41 102,-19.62"/><polygon fill="#9a32cd" stroke="#9a32cd" points="98.5 -79.34 102 -89.34 105.5 -79.34 98.5 -79.34"/><text x="123.5" y="-57.5" font-family="Helvetica,sans-Serif" font-size="10" text-anchor="middle">offset_3</text><text x="123.5" y="-46.5" font-family="Helvetica,sans-Serif" font-size="10" text-anchor="middle">zero</text></g><g id="node4" class="node"><title>Node4</title><g id="a_node4"><a><polygon fill="none" stroke="#bfbfbf" points="148 -89.5 148 -108.5 198 -108.5 198 -89.5 148 -89.5"/><text x="173" y="-96.5" font-family="Helvetica,sans-Serif" font-size="10" text-anchor="middle">uint8_t</text></a></g></g><g id="edge3" class="edge"><title>Node4-&gt;Node1</title><path fill="none" stroke="#9a32cd" stroke-dasharray="5 2" d="M168.97,-79.3C165.44,-66.51 159.24,-49.79 149,-38 142.21,-30.18 132.58,-24.1 123.8,-19.7"/><polygon fill="#9a32cd" stroke="#9a32cd" points="165.64 -80.42 171.41 -89.31 172.44 -78.76 165.64 -80.42"/><text x="203.5" y="-57.5" font-family="Helvetica,sans-Serif" font-size="10" text-anchor="middle">ist</text><text x="203.5" y="-46.5" font-family="Helvetica,sans-Serif" font-size="10" text-anchor="middle">type_attributes</text></g></g></svg>