<svg xmlns="http://www.w3.org/2000/svg" xmlns:xlink="http://www.w3.org/1999/xlink" width="328pt" height="128pt" viewBox="0 0 328 128"><g id="graph0" class="graph" transform="scale(1 1) rotate(0) translate(4 124)"><title>ide_device</title><g id="node1" class="node"><title>Node1</title><g id="a_node1"><a><polygon fill="#bfbfbf" stroke="#000" points="108.5 -.5 108.5 -19.5 177.5 -19.5 177.5 -.5 108.5 -.5"/><text x="143" y="-7.5" font-family="Helvetica,sans-Serif" font-size="10" text-anchor="middle">ide_device</text></a></g></g><g id="node2" class="node"><title>Node2</title><g id="a_node2"><a><polygon fill="none" stroke="#bfbfbf" points="0 -100.5 0 -119.5 56 -119.5 56 -100.5 0 -100.5"/><text x="28" y="-107.5" font-family="Helvetica,sans-Serif" font-size="10" text-anchor="middle">uint64_t</text></a></g></g><g id="edge1" class="edge"><title>Node2-&gt;Node1</title><path fill="none" stroke="#9a32cd" stroke-dasharray="5 2" d="M34.5,-90.49C40.97,-74.56 52.35,-51.98 69,-38 80.21,-28.59 94.97,-22.33 108.36,-18.23"/><polygon fill="#9a32cd" stroke="#9a32cd" points="31.07 -89.68 30.8 -100.28 37.61 -92.16 31.07 -89.68"/><text x="80.5" y="-57.5" font-family="Helvetica,sans-Serif" font-size="10" text-anchor="middle">size</text></g><g id="node3" class="node"><title>Node3</title><g id="a_node3"><a><polygon fill="none" stroke="#bfbfbf" points="74 -100.5 74 -119.5 130 -119.5 130 -100.5 74 -100.5"/><text x="102" y="-107.5" font-family="Helvetica,sans-Serif" font-size="10" text-anchor="middle">uint16_t</text></a></g></g><g id="edge2" class="edge"><title>Node3-&gt;Node1</title><path fill="none" stroke="#9a32cd" stroke-dasharray="5 2" d="M97.68,-89.9C95.33,-74.88 94.4,-53.9 103,-38 107.3,-30.04 115.09,-23.99 122.67,-19.66"/><polygon fill="#9a32cd" stroke="#9a32cd" points="94.31 -90.89 99.63 -100.05 101.18 -89.56 94.31 -90.89"/><text x="133" y="-68.5" font-family="Helvetica,sans-Serif" font-size="10" text-anchor="middle">capabilities</text><text x="133" y="-57.5" font-family="Helvetica,sans-Serif" font-size="10" text-anchor="middle">sign</text><text x="133" y="-46.5" font-family="Helvetica,sans-Serif" font-size="10" text-anchor="middle">type</text></g><g id="node4" class="node"><title>Node4</title><g id="a_node4"><a><polygon fill="none" stroke="#bfbfbf" points="157 -100.5 157 -119.5 213 -119.5 213 -100.5 157 -100.5"/><text x="185" y="-107.5" font-family="Helvetica,sans-Serif" font-size="10" text-anchor="middle">uint32_t</text></a></g></g><g id="edge3" class="edge"><title>Node4-&gt;Node1</title><path fill="none" stroke="#9a32cd" stroke-dasharray="5 2" d="M181.07,-90.44C177.53,-75.71 171.55,-54.88 163,-38 159.62,-31.34 154.62,-24.59 150.47,-19.5"/><polygon fill="#9a32cd" stroke="#9a32cd" points="177.69 -91.35 183.31 -100.34 184.51 -89.81 177.69 -91.35"/><text x="214.5" y="-57.5" font-family="Helvetica,sans-Serif" font-size="10" text-anchor="middle">commandsets</text></g><g id="node5" class="node"><title>Node5</title><g id="a_node5"><a><polygon fill="none" stroke="#bfbfbf" points="256 -100.5 256 -119.5 306 -119.5 306 -100.5 256 -100.5"/><text x="281" y="-107.5" font-family="Helvetica,sans-Serif" font-size="10" text-anchor="middle">uint8_t</text></a></g></g><g id="edge4" class="edge"><title>Node5-&gt;Node1</title><path fill="none" stroke="#9a32cd" stroke-dasharray="5 2" d="M279.03,-90.18C276.33,-74.04 269.97,-51.34 255,-38 233.95,-19.23 202.11,-12.95 177.75,-11.09"/><polygon fill="#9a32cd" stroke="#9a32cd" points="275.56 -90.67 280.37 -100.11 282.5 -89.73 275.56 -90.67"/><text x="298.5" y="-74" font-family="Helvetica,sans-Serif" font-size="10" text-anchor="middle">channel</text><text x="298.5" y="-63" font-family="Helvetica,sans-Serif" font-size="10" text-anchor="middle">drive</text><text x="298.5" y="-52" font-family="Helvetica,sans-Serif" font-size="10" text-anchor="middle">model</text><text x="298.5" y="-41" font-family="Helvetica,sans-Serif" font-size="10" text-anchor="middle">reserved</text></g></g></svg>