<svg xmlns="http://www.w3.org/2000/svg" xmlns:xlink="http://www.w3.org/1999/xlink" width="130pt" height="95pt" viewBox="0 0 130 95"><g id="graph0" class="graph" transform="scale(1 1) rotate(0) translate(4 91)"><title>devname_prefix_t</title><g id="node1" class="node"><title>Node1</title><g id="a_node1"><a><polygon fill="#bfbfbf" stroke="#000" points="0 -.5 0 -19.5 104 -19.5 104 -.5 0 -.5"/><text x="52" y="-7.5" font-family="Helvetica,sans-Serif" font-size="10" text-anchor="middle">devname_prefix_t</text></a></g></g><g id="node2" class="node"><title>Node2</title><g id="a_node2"><a><polygon fill="none" stroke="#bfbfbf" points="2 -67.5 2 -86.5 40 -86.5 40 -67.5 2 -67.5"/><text x="21" y="-74.5" font-family="Helvetica,sans-Serif" font-size="10" text-anchor="middle">char</text></a></g></g><g id="edge1" class="edge"><title>Node2-&gt;Node1</title><path fill="none" stroke="#9a32cd" stroke-dasharray="5 2" d="M23.72,-57.16C25.07,-50.85 27.08,-43.93 30,-38 33.32,-31.28 38.58,-24.73 43.13,-19.77"/><polygon fill="#9a32cd" stroke="#9a32cd" points="20.19 -57.02 21.91 -67.48 27.08 -58.23 20.19 -57.02"/><text x="45.5" y="-41" font-family="Helvetica,sans-Serif" font-size="10" text-anchor="middle">prefix</text></g><g id="node3" class="node"><title>Node3</title><g id="a_node3"><a><polygon fill="none" stroke="#bfbfbf" points="58 -67.5 58 -86.5 108 -86.5 108 -67.5 58 -67.5"/><text x="83" y="-74.5" font-family="Helvetica,sans-Serif" font-size="10" text-anchor="middle">uint8_t</text></a></g></g><g id="edge2" class="edge"><title>Node3-&gt;Node1</title><path fill="none" stroke="#9a32cd" stroke-dasharray="5 2" d="M74.49,-58.16C68.51,-45.63 60.78,-29.41 56.11,-19.63"/><polygon fill="#9a32cd" stroke="#9a32cd" points="71.36 -59.71 78.82 -67.23 77.67 -56.7 71.36 -59.71"/><text x="95.5" y="-41" font-family="Helvetica,sans-Serif" font-size="10" text-anchor="middle">increment</text></g></g></svg>