<svg xmlns="http://www.w3.org/2000/svg" xmlns:xlink="http://www.w3.org/1999/xlink" width="128pt" height="95pt" viewBox="0 0 128 95"><g id="graph0" class="graph" transform="scale(1 1) rotate(0) translate(4 91)"><title>idt_ptr_t</title><g id="node1" class="node"><title>Node1</title><g id="a_node1"><a><polygon fill="#bfbfbf" stroke="#000" points="33.5 -.5 33.5 -19.5 90.5 -19.5 90.5 -.5 33.5 -.5"/><text x="62" y="-7.5" font-family="Helvetica,sans-Serif" font-size="10" text-anchor="middle">idt_ptr_t</text></a></g></g><g id="node2" class="node"><title>Node2</title><g id="a_node2"><a><polygon fill="none" stroke="#bfbfbf" points="0 -67.5 0 -86.5 56 -86.5 56 -67.5 0 -67.5"/><text x="28" y="-74.5" font-family="Helvetica,sans-Serif" font-size="10" text-anchor="middle">uint16_t</text></a></g></g><g id="edge1" class="edge"><title>Node2-&gt;Node1</title><path fill="none" stroke="#9a32cd" stroke-dasharray="5 2" d="M37.33,-58.16C43.89,-45.63 52.37,-29.41 57.49,-19.63"/><polygon fill="#9a32cd" stroke="#9a32cd" points="34.12 -56.75 32.59 -67.23 40.32 -60 34.12 -56.75"/><text x="61" y="-41" font-family="Helvetica,sans-Serif" font-size="10" text-anchor="middle">limit</text></g><g id="node3" class="node"><title>Node3</title><g id="a_node3"><a><polygon fill="none" stroke="#bfbfbf" points="74 -67.5 74 -86.5 120 -86.5 120 -67.5 74 -67.5"/><text x="97" y="-74.5" font-family="Helvetica,sans-Serif" font-size="10" text-anchor="middle">void *</text></a></g></g><g id="edge2" class="edge"><title>Node3-&gt;Node1</title><path fill="none" stroke="#9a32cd" stroke-dasharray="5 2" d="M87.4,-58.16C80.65,-45.63 71.91,-29.41 66.65,-19.63"/><polygon fill="#9a32cd" stroke="#9a32cd" points="84.46 -60.09 92.28 -67.23 90.62 -56.77 84.46 -60.09"/><text x="94.5" y="-41" font-family="Helvetica,sans-Serif" font-size="10" text-anchor="middle">base</text></g></g></svg>