<svg xmlns="http://www.w3.org/2000/svg" xmlns:xlink="http://www.w3.org/1999/xlink" width="224" height="156" viewBox="0 0 168 117"><g id="graph0" class="graph" transform="scale(1 1) rotate(0) translate(4 113)"><title>tos_flags</title><g id="node1" class="node"><title>Node1</title><g id="a_node1"><a><polygon fill="#bfbfbf" stroke="#000" points="39 -.5 39 -19.5 99 -19.5 99 -.5 39 -.5"/><text x="69" y="-7.5" font-family="Helvetica,sans-Serif" font-size="10" text-anchor="middle">tos_flags</text></a></g></g><g id="node2" class="node"><title>Node2</title><g id="a_node2"><a><polygon fill="none" stroke="#bfbfbf" points="0 -89.5 0 -108.5 50 -108.5 50 -89.5 0 -89.5"/><text x="25" y="-96.5" font-family="Helvetica,sans-Serif" font-size="10" text-anchor="middle">uint8_t</text></a></g></g><g id="edge1" class="edge"><title>Node2-&gt;Node1</title><path fill="none" stroke="#9a32cd" stroke-dasharray="5 2" d="M33.99,-80.23C43.32,-61.77 57.53,-33.67 64.64,-19.62"/><polygon fill="#9a32cd" stroke="#9a32cd" points="30.77 -78.84 29.38 -89.34 37.02 -82 30.77 -78.84"/><text x="66.5" y="-63" font-family="Helvetica,sans-Serif" font-size="10" text-anchor="middle">bits</text><text x="66.5" y="-52" font-family="Helvetica,sans-Serif" font-size="10" text-anchor="middle">dscp</text><text x="66.5" y="-41" font-family="Helvetica,sans-Serif" font-size="10" text-anchor="middle">ecn</text></g><g id="node3" class="node"><title>Node3</title><g id="a_node3"><a><polygon fill="none" stroke="#bfbfbf" points="68 -89.5 68 -108.5 160 -108.5 160 -89.5 68 -89.5"/><text x="114" y="-96.5" font-family="Helvetica,sans-Serif" font-size="10" text-anchor="middle">anonymous:@5</text></a></g></g><g id="edge2" class="edge"><title>Node3-&gt;Node1</title><path fill="none" stroke="#9a32cd" stroke-dasharray="5 2" d="M104.81,-80.23C95.26,-61.77 80.73,-33.67 73.46,-19.62"/><polygon fill="#9a32cd" stroke="#9a32cd" points="101.82 -82.07 109.52 -89.34 108.04 -78.85 101.82 -82.07"/><text x="108.5" y="-52" font-family="Helvetica,sans-Serif" font-size="10" text-anchor="middle">@5</text></g></g></svg>